<svg xmlns="http://www.w3.org/2000/svg" width="192" height="192" viewBox="0 0 192 192">
  <rect width="192" height="192" rx="32" fill="#0f1923"/>
  <svg x="28" y="28" width="136" height="136" viewBox="0 0 1024 1024">
    <g transform="translate(0,1024) scale(0.1,-0.1)" fill="#e94560" stroke="none">
      <path d="M5037 7986 c-97 -36 -152 -117 -151 -221 0 -81 30 -137 93 -176 l48 -30 -129 -182 c-71 -100 -166 -235 -211 -299 -45 -64 -85 -117 -89 -117 -4 -1 -109 61 -235 138 -138 84 -227 144 -226 152 1 8 8 35 14 61 41 159 -153 287 -298 197 -135 -84 -113 -293 36 -346 l47 -16 23 -181 c30 -241 60 -452 67 -470 3 -8 19 -20 35 -27 27 -10 47 -7 177 29 169 48 302 75 481 99 181 24 627 24 806 -1 177 -24 356 -61 497 -102 131 -38 146 -40 173 -21 19 14 27 63 86 500 l22 169 51 22 c110 49 154 161 105 264 -60 123 -238 149 -328 47 -49 -57 -62 -128 -35 -193 14 -34 14 -38 -3 -50 -33 -24 -465 -274 -468 -270 -1 2 -76 111 -167 243 -263 384 -252 365 -223 365 9 0 35 19 58 43 139 138 47 367 -153 382 -43 4 -78 1 -103 -9z"/>
      <path d="M4368 6320 c-192 -33 -398 -153 -513 -299 -47 -59 -49 -61 -95 -61 -111 0 -309 -75 -435 -165 -130 -92 -252 -249 -305 -390 -27 -74 -50 -191 -50 -254 0 -46 -3 -50 -82 -132 -266 -271 -334 -713 -163 -1065 155 -320 476 -525 847 -542 l118 -5 27 -55 c87 -172 309 -315 556 -358 173 -30 385 1 530 79 133 70 266 233 301 367 8 30 16 48 19 40 3 -8 13 -38 22 -66 60 -191 236 -344 466 -405 112 -30 307 -33 424 -6 208 49 406 190 486 349 l29 58 74 0 c494 0 913 351 976 818 23 168 1 350 -60 502 -45 112 -149 261 -230 328 -40 33 -40 34 -40 102 0 226 -123 455 -331 615 -120 93 -295 166 -441 185 -77 9 -83 12 -112 47 -168 210 -451 337 -706 319 -253 -19 -465 -180 -536 -408 -10 -32 -21 -58 -25 -58 -3 0 -9 14 -13 30 -20 104 -129 254 -238 328 -132 90 -330 130 -500 102z m225 -225 c37 -8 90 -26 117 -41 67 -36 145 -120 178 -191 l27 -58 0 -1145 0 -1145 -27 -58 c-16 -34 -51 -81 -85 -115 -97 -95 -222 -143 -378 -144 -175 -1 -333 59 -441 168 -96 96 -106 166 -42 286 57 108 170 207 311 273 93 44 168 63 293 74 56 5 110 15 122 22 60 38 52 147 -13 177 -100 46 -339 5 -526 -89 -201 -100 -382 -293 -430 -456 -11 -41 -14 -43 -49 -43 -123 0 -324 60 -444 132 -264 159 -405 485 -340 781 18 82 88 235 132 286 l29 35 29 -58 c100 -198 308 -361 549 -431 102 -29 284 -50 350 -41 75 12 113 78 85 150 -16 43 -49 56 -191 71 -74 8 -159 21 -189 29 -96 26 -212 92 -282 160 -345 335 -188 859 302 1006 l25 7 0 -136 c0 -114 4 -148 23 -208 67 -214 280 -392 513 -430 85 -14 98 -14 132 0 27 12 42 27 53 53 32 76 -10 131 -121 158 -160 39 -287 132 -347 254 -31 62 -33 73 -33 172 0 94 3 111 28 165 76 162 239 291 418 330 84 18 139 18 222 0z m1299 -11 c155 -46 322 -182 389 -319 32 -66 34 -75 34 -175 0 -93 -3 -111 -27 -163 -35 -73 -117 -156 -197 -196 -34 -17 -103 -43 -154 -56 -115 -31 -142 -55 -134 -124 10 -86 74 -114 204 -87 168 34 360 163 441 299 73 121 108 299 83 416 -6 30 -10 56 -8 57 7 7 111 -33 187 -71 100 -50 232 -181 278 -275 62 -130 78 -260 46 -384 -48 -188 -219 -360 -429 -431 -64 -22 -205 -45 -273 -45 -69 0 -117 -21 -137 -59 -33 -65 12 -142 92 -157 46 -9 182 2 270 21 276 58 516 235 633 465 l23 44 24 -29 c43 -53 113 -203 133 -288 56 -231 -8 -473 -170 -649 -145 -158 -360 -257 -569 -261 l-74 -2 -16 45 c-47 132 -175 289 -306 377 -181 121 -430 197 -593 180 -69 -7 -98 -27 -113 -76 -10 -34 -9 -45 8 -78 24 -46 61 -62 148 -63 91 0 219 -35 325 -87 79 -39 110 -62 186 -138 100 -99 135 -159 142 -240 5 -67 -18 -113 -92 -183 -173 -163 -484 -200 -712 -84 -70 36 -141 108 -176 180 l-33 67 0 1150 0 1150 32 66 c55 112 161 192 290 218 60 12 175 5 245 -15z"/>
    </g>
  </svg>
</svg>
